<svg xmlns="http://www.w3.org/2000/svg" xmlns:xlink="http://www.w3.org/1999/xlink" width="1280" height="208" viewBox="0 0 1280 208">
  <defs>
    <clipPath id="clip-path">
      <rect id="front-view-male-holding-tray-with-burger-fries" width="1280" height="208" transform="translate(3470 8615)" fill="#2e2e2e"/>
    </clipPath>
    <clipPath id="clip-path-2">
      <rect id="Rectangle_298" data-name="Rectangle 298" width="67.187" height="54.337" fill="none"/>
    </clipPath>
    <clipPath id="clip-path-4">
      <rect id="Rectangle_299" data-name="Rectangle 299" width="77.288" height="63.07" fill="none"/>
    </clipPath>
    <clipPath id="clip-path-7">
      <rect id="Rectangle_300" data-name="Rectangle 300" width="50.436" height="56.765" fill="none"/>
    </clipPath>
    <clipPath id="clip-path-8">
      <path id="Path_314" data-name="Path 314" d="M0,0H70.916V58.934H0Z" fill="none"/>
    </clipPath>
    <clipPath id="clip-path-9">
      <rect id="Rectangle_301" data-name="Rectangle 301" width="32.652" height="65.131" fill="none"/>
    </clipPath>
    <clipPath id="clip-path-13">
      <rect id="Rectangle_304" data-name="Rectangle 304" width="54.654" height="45.393" fill="none"/>
    </clipPath>
    <clipPath id="clip-path-16">
      <rect id="Rectangle_305" data-name="Rectangle 305" width="57.645" height="53.929" fill="none"/>
    </clipPath>
    <clipPath id="clip-path-17">
      <rect id="Rectangle_306" data-name="Rectangle 306" width="62.807" height="15.433" fill="none"/>
    </clipPath>
    <clipPath id="clip-path-18">
      <rect id="Rectangle_307" data-name="Rectangle 307" width="18.572" height="18.572" fill="none"/>
    </clipPath>
  </defs>
  <g id="Mask_Group_44" data-name="Mask Group 44" transform="translate(-3470 -8615)" opacity="0.3" clip-path="url(#clip-path)">
    <g id="Group_615" data-name="Group 615" transform="translate(-38.487 -2.939)">
      <g id="Group_586" data-name="Group 586" transform="translate(3500 8610.463)">
        <g id="Group_585" data-name="Group 585" transform="translate(0 0)" clip-path="url(#clip-path-2)">
          <line id="Line_153" data-name="Line 153" y1="34.462" x2="34.462" transform="translate(1.51 1.51)" fill="none" stroke="#000" stroke-linecap="round" stroke-linejoin="round" stroke-width="3"/>
          <line id="Line_154" data-name="Line 154" y1="34.462" x2="34.462" transform="translate(32.511 19.662)" fill="none" stroke="#000" stroke-miterlimit="10" stroke-width="1"/>
        </g>
      </g>
      <g id="Group_608" data-name="Group 608" transform="translate(4500.816 8753.292)">
        <g id="Group_585-2" data-name="Group 585" transform="translate(0 0)" clip-path="url(#clip-path-2)">
          <line id="Line_153-2" data-name="Line 153" y1="34.462" x2="34.462" transform="translate(1.51 1.51)" fill="none" stroke="#000" stroke-linecap="round" stroke-linejoin="round" stroke-width="3"/>
          <line id="Line_154-2" data-name="Line 154" y1="34.462" x2="34.462" transform="translate(32.511 19.662)" fill="none" stroke="#000" stroke-miterlimit="10" stroke-width="1"/>
        </g>
      </g>
      <g id="Group_588" data-name="Group 588" transform="translate(3599.445 8664.8)">
        <g id="Group_587" data-name="Group 587" transform="translate(0 0)" clip-path="url(#clip-path-4)">
          <path id="Path_308" data-name="Path 308" d="M44.389,25.561,50.854,2.5,26.683,8.7,2.5,14.89,20.215,31.749,37.927,48.618Z" transform="translate(-1.173 -1.236)" fill="none" stroke="#000" stroke-linecap="round" stroke-linejoin="round" stroke-width="3"/>
          <path id="Path_309" data-name="Path 309" d="M95.716,55.613l6.465-23.061L78.01,38.75,53.827,44.943,71.542,61.8,89.254,78.67Z" transform="translate(-25.268 -16.088)" fill="none" stroke="#000" stroke-miterlimit="10" stroke-width="1"/>
        </g>
        <g id="Group_617" data-name="Group 617" transform="translate(-20 123)" clip-path="url(#clip-path-4)">
          <path id="Path_328" data-name="Path 328" d="M95.716,55.613l6.465-23.061L78.01,38.75,53.827,44.943,71.542,61.8,89.254,78.67Z" transform="translate(-25.268 -16.088)" fill="none" stroke="#000" stroke-miterlimit="10" stroke-width="1"/>
        </g>
      </g>
      <g id="Group_607" data-name="Group 607" transform="translate(4393.958 8672.869)">
        <g id="Group_587-2" data-name="Group 587" transform="translate(0 0)" clip-path="url(#clip-path-4)">
          <path id="Path_308-2" data-name="Path 308" d="M8.965,25.561,2.5,2.5,26.671,8.7,50.854,14.89,33.139,31.749,15.427,48.618Z" transform="translate(25.107 -1.236)" fill="none" stroke="#000" stroke-linecap="round" stroke-linejoin="round" stroke-width="3"/>
          <path id="Path_309-2" data-name="Path 309" d="M60.292,55.613,53.827,32.552,78,38.75l24.183,6.193L84.466,61.8,66.754,78.67Z" transform="translate(-53.452 -16.088)" fill="none" stroke="#000" stroke-miterlimit="10" stroke-width="1"/>
        </g>
      </g>
      <g id="Group_590" data-name="Group 590" transform="translate(3751.229 8610.463)">
        <g id="Group_589" data-name="Group 589" clip-path="url(#clip-path-7)">
          <path id="Path_310" data-name="Path 310" d="M22.645,41.28C11.519,41.28,2.5,32.6,2.5,21.89S11.519,2.5,22.645,2.5" transform="translate(1.41 -1.14)" fill="none" stroke="#000" stroke-linecap="round" stroke-linejoin="round" stroke-width="3"/>
          <path id="Path_311" data-name="Path 311" d="M73.972,71.333c-11.127,0-20.145-8.683-20.145-19.391s9.019-19.39,20.145-19.39" transform="translate(-23.536 -14.84)" fill="none" stroke="#000" stroke-miterlimit="10" stroke-width="1"/>
        </g>
      </g>
      <g id="Group_592" data-name="Group 592" transform="translate(3824.505 8685.831)">
        <g id="Mask_Group_43" data-name="Mask Group 43" transform="translate(0 0)" clip-path="url(#clip-path-8)">
          <path id="Path_312" data-name="Path 312" d="M42.821,22.66A20.16,20.16,0,1,1,22.661,2.5,20.16,20.16,0,0,1,42.821,22.66Z" transform="translate(1.001 1.001)" fill="none" stroke="#000" stroke-linecap="round" stroke-linejoin="round" stroke-width="3"/>
          <path id="Path_313" data-name="Path 313" d="M94.148,52.713a20.16,20.16,0,1,1-20.16-20.16A20.159,20.159,0,0,1,94.148,52.713Z" transform="translate(-23.514 -14.22)" fill="none" stroke="#000" stroke-miterlimit="10" stroke-width="1"/>
        </g>
      </g>
      <g id="Group_594" data-name="Group 594" transform="translate(3945.073 8600.113)">
        <g id="Group_593" data-name="Group 593" transform="translate(0 0)" clip-path="url(#clip-path-9)">
          <path id="Path_315" data-name="Path 315" d="M13.491,100.6c0,6.2-10.991,5.129-10.991,13.038" transform="translate(0.59 -59.443)" fill="none" stroke="#000" stroke-linecap="round" stroke-linejoin="round" stroke-width="3"/>
          <path id="Path_316" data-name="Path 316" d="M13.491,35.2c0,6.2-10.991,5.129-10.991,13.037" transform="translate(0.59 -20.119)" fill="none" stroke="#000" stroke-linecap="round" stroke-linejoin="round" stroke-width="3"/>
          <path id="Path_317" data-name="Path 317" d="M13.491,80.937c0-6.2-10.991-5.13-10.991-13.039" transform="translate(0.59 -39.78)" fill="none" stroke="#000" stroke-linecap="round" stroke-linejoin="round" stroke-width="3"/>
          <path id="Path_318" data-name="Path 318" d="M13.491,15.538C13.491,9.341,2.5,10.408,2.5,2.5" transform="translate(0.59 -0.456)" fill="none" stroke="#000" stroke-linecap="round" stroke-linejoin="round" stroke-width="3"/>
          <path id="Path_319" data-name="Path 319" d="M64.818,130.653c0,6.2-10.991,5.129-10.991,13.038" transform="translate(-32.366 -78.56)" fill="none" stroke="#000" stroke-miterlimit="10" stroke-width="1"/>
          <path id="Path_320" data-name="Path 320" d="M64.818,65.253c0,6.2-10.991,5.129-10.991,13.037" transform="translate(-32.366 -39.236)" fill="none" stroke="#000" stroke-miterlimit="10" stroke-width="1"/>
          <path id="Path_321" data-name="Path 321" d="M64.818,110.99c0-6.2-10.991-5.13-10.991-13.039" transform="translate(-32.366 -58.897)" fill="none" stroke="#000" stroke-miterlimit="10" stroke-width="1"/>
          <path id="Path_322" data-name="Path 322" d="M64.818,45.591c0-6.2-10.991-5.129-10.991-13.038" transform="translate(-32.366 -19.574)" fill="none" stroke="#000" stroke-miterlimit="10" stroke-width="1"/>
        </g>
      </g>
      <g id="Group_604" data-name="Group 604" transform="translate(3718.578 8729.322)">
        <g id="Group_593-2" data-name="Group 593" transform="translate(0 0)" clip-path="url(#clip-path-9)">
          <path id="Path_315-2" data-name="Path 315" d="M13.491,100.6c0,6.2-10.991,5.129-10.991,13.038" transform="translate(0.59 -59.443)" fill="none" stroke="#000" stroke-linecap="round" stroke-linejoin="round" stroke-width="3"/>
          <path id="Path_316-2" data-name="Path 316" d="M13.491,35.2c0,6.2-10.991,5.129-10.991,13.037" transform="translate(0.59 -20.119)" fill="none" stroke="#000" stroke-linecap="round" stroke-linejoin="round" stroke-width="3"/>
          <path id="Path_317-2" data-name="Path 317" d="M13.491,80.937c0-6.2-10.991-5.13-10.991-13.039" transform="translate(0.59 -39.78)" fill="none" stroke="#000" stroke-linecap="round" stroke-linejoin="round" stroke-width="3"/>
          <path id="Path_318-2" data-name="Path 318" d="M13.491,15.538C13.491,9.341,2.5,10.408,2.5,2.5" transform="translate(0.59 -0.456)" fill="none" stroke="#000" stroke-linecap="round" stroke-linejoin="round" stroke-width="3"/>
          <path id="Path_319-2" data-name="Path 319" d="M64.818,130.653c0,6.2-10.991,5.129-10.991,13.038" transform="translate(-32.366 -78.56)" fill="none" stroke="#000" stroke-miterlimit="10" stroke-width="1"/>
          <path id="Path_320-2" data-name="Path 320" d="M64.818,65.253c0,6.2-10.991,5.129-10.991,13.037" transform="translate(-32.366 -39.236)" fill="none" stroke="#000" stroke-miterlimit="10" stroke-width="1"/>
          <path id="Path_321-2" data-name="Path 321" d="M64.818,110.99c0-6.2-10.991-5.13-10.991-13.039" transform="translate(-32.366 -58.897)" fill="none" stroke="#000" stroke-miterlimit="10" stroke-width="1"/>
          <path id="Path_322-2" data-name="Path 322" d="M64.818,45.591c0-6.2-10.991-5.129-10.991-13.038" transform="translate(-32.366 -19.574)" fill="none" stroke="#000" stroke-miterlimit="10" stroke-width="1"/>
        </g>
      </g>
      <g id="Group_606" data-name="Group 606" transform="translate(4353.979 8780.461)">
        <g id="Group_593-3" data-name="Group 593" transform="translate(0 0)" clip-path="url(#clip-path-9)">
          <path id="Path_315-3" data-name="Path 315" d="M13.491,100.6c0,6.2-10.991,5.129-10.991,13.038" transform="translate(0.59 -59.443)" fill="none" stroke="#000" stroke-linecap="round" stroke-linejoin="round" stroke-width="3"/>
          <path id="Path_316-3" data-name="Path 316" d="M13.491,35.2c0,6.2-10.991,5.129-10.991,13.037" transform="translate(0.59 -20.119)" fill="none" stroke="#000" stroke-linecap="round" stroke-linejoin="round" stroke-width="3"/>
          <path id="Path_317-3" data-name="Path 317" d="M13.491,80.937c0-6.2-10.991-5.13-10.991-13.039" transform="translate(0.59 -39.78)" fill="none" stroke="#000" stroke-linecap="round" stroke-linejoin="round" stroke-width="3"/>
          <path id="Path_318-3" data-name="Path 318" d="M13.491,15.538C13.491,9.341,2.5,10.408,2.5,2.5" transform="translate(0.59 -0.456)" fill="none" stroke="#000" stroke-linecap="round" stroke-linejoin="round" stroke-width="3"/>
          <path id="Path_319-3" data-name="Path 319" d="M64.818,130.653c0,6.2-10.991,5.129-10.991,13.038" transform="translate(-32.366 -78.56)" fill="none" stroke="#000" stroke-miterlimit="10" stroke-width="1"/>
          <path id="Path_320-3" data-name="Path 320" d="M64.818,65.253c0,6.2-10.991,5.129-10.991,13.037" transform="translate(-32.366 -39.236)" fill="none" stroke="#000" stroke-miterlimit="10" stroke-width="1"/>
          <path id="Path_321-3" data-name="Path 321" d="M64.818,110.99c0-6.2-10.991-5.13-10.991-13.039" transform="translate(-32.366 -58.897)" fill="none" stroke="#000" stroke-miterlimit="10" stroke-width="1"/>
          <path id="Path_322-3" data-name="Path 322" d="M64.818,45.591c0-6.2-10.991-5.129-10.991-13.038" transform="translate(-32.366 -19.574)" fill="none" stroke="#000" stroke-miterlimit="10" stroke-width="1"/>
        </g>
      </g>
      <g id="Group_614" data-name="Group 614" transform="translate(4742.796 8662.855) rotate(-89)">
        <g id="Group_593-4" data-name="Group 593" transform="translate(0 0)" clip-path="url(#clip-path-9)">
          <path id="Path_315-4" data-name="Path 315" d="M10.991,0C10.991,6.2,0,5.129,0,13.038" transform="translate(3.09 41.157)" fill="none" stroke="#000" stroke-linecap="round" stroke-linejoin="round" stroke-width="3"/>
          <path id="Path_316-4" data-name="Path 316" d="M10.991,0C10.991,6.2,0,5.129,0,13.037" transform="translate(3.09 15.081)" fill="none" stroke="#000" stroke-linecap="round" stroke-linejoin="round" stroke-width="3"/>
          <path id="Path_317-4" data-name="Path 317" d="M10.991,13.039C10.991,6.841,0,7.908,0,0" transform="translate(3.09 28.118)" fill="none" stroke="#000" stroke-linecap="round" stroke-linejoin="round" stroke-width="3"/>
          <path id="Path_318-4" data-name="Path 318" d="M10.991,13.038C10.991,6.841,0,7.908,0,0" transform="translate(3.09 2.044)" fill="none" stroke="#000" stroke-linecap="round" stroke-linejoin="round" stroke-width="3"/>
          <path id="Path_319-4" data-name="Path 319" d="M10.991,0C10.991,6.2,0,5.129,0,13.038" transform="translate(21.461 52.093)" fill="none" stroke="#000" stroke-miterlimit="10" stroke-width="1"/>
          <path id="Path_320-4" data-name="Path 320" d="M10.991,0C10.991,6.2,0,5.129,0,13.037" transform="translate(21.461 26.017)" fill="none" stroke="#000" stroke-miterlimit="10" stroke-width="1"/>
          <path id="Path_321-4" data-name="Path 321" d="M10.991,13.039C10.991,6.841,0,7.908,0,0" transform="translate(21.461 39.054)" fill="none" stroke="#000" stroke-miterlimit="10" stroke-width="1"/>
          <path id="Path_322-4" data-name="Path 322" d="M10.991,13.038C10.991,6.841,0,7.908,0,0" transform="translate(21.461 12.979)" fill="none" stroke="#000" stroke-miterlimit="10" stroke-width="1"/>
        </g>
      </g>
      <g id="Group_596" data-name="Group 596" transform="translate(4027.377 8647.1)">
        <g id="Group_595" data-name="Group 595" clip-path="url(#clip-path-13)">
          <path id="Path_323" data-name="Path 323" d="M0,0H31V31H0Z" transform="translate(3.182 3.182)" fill="none" stroke="#000" stroke-linecap="round" stroke-width="3"/>
          <rect id="Rectangle_303" data-name="Rectangle 303" width="31.001" height="31.003" transform="translate(23.435 14.173)" fill="none" stroke="#000" stroke-miterlimit="10" stroke-width="1"/>
        </g>
      </g>
      <g id="Group_613" data-name="Group 613" transform="translate(3878.732 8794.454)">
        <g id="Group_595-2" data-name="Group 595" clip-path="url(#clip-path-13)">
          <path id="Path_323-2" data-name="Path 323" d="M31,31H0V0H31Z" transform="translate(20.471 11.209)" fill="none" stroke="#000" stroke-linecap="round" stroke-width="3"/>
          <rect id="Rectangle_303-2" data-name="Rectangle 303" width="31.001" height="31.003" transform="translate(0.218 0.218)" fill="none" stroke="#000" stroke-miterlimit="10" stroke-width="1"/>
        </g>
      </g>
      <g id="Group_609" data-name="Group 609" transform="translate(4626.14 8692.602)">
        <g id="Group_595-3" data-name="Group 595" clip-path="url(#clip-path-13)">
          <path id="Path_323-3" data-name="Path 323" d="M0,0H31V31H0Z" transform="translate(3.182 3.182)" fill="none" stroke="#000" stroke-linecap="round" stroke-width="3"/>
          <rect id="Rectangle_303-3" data-name="Rectangle 303" width="31.001" height="31.003" transform="translate(23.435 14.173)" fill="none" stroke="#000" stroke-miterlimit="10" stroke-width="1"/>
        </g>
      </g>
      <g id="Group_598" data-name="Group 598" transform="translate(4161.571 8707.959)">
        <g id="Group_597" data-name="Group 597" clip-path="url(#clip-path-16)">
          <path id="Path_324" data-name="Path 324" d="M19.765,32.355l17.242-9.969L19.755,12.447,2.5,2.5l.017,19.91.009,19.915Z" transform="translate(0.649 -0.398)" fill="none" stroke="#000" stroke-linecap="round" stroke-linejoin="round" stroke-width="3"/>
          <path id="Path_325" data-name="Path 325" d="M71.092,62.408l17.242-9.969L71.082,42.5,53.827,32.552l.017,19.911.009,19.915Z" transform="translate(-31.111 -18.815)" fill="none" stroke="#000" stroke-miterlimit="10" stroke-width="1"/>
        </g>
      </g>
      <g id="Group_600" data-name="Group 600" transform="translate(4169.945 8632.678)">
        <g id="Group_599" data-name="Group 599" transform="translate(0 0)" clip-path="url(#clip-path-17)">
          <line id="Line_155" data-name="Line 155" x2="37.675" transform="translate(2.214 3.261)" fill="none" stroke="#000" stroke-linecap="round" stroke-linejoin="round" stroke-width="3"/>
          <line id="Line_156" data-name="Line 156" x2="37.675" transform="translate(25.132 15.199)" fill="none" stroke="#000" stroke-miterlimit="10" stroke-width="1"/>
        </g>
      </g>
      <g id="Group_602" data-name="Group 602" transform="translate(4284.045 8685.832)">
        <g id="Group_601" data-name="Group 601" transform="translate(0 0)" clip-path="url(#clip-path-18)">
          <path id="Path_326" data-name="Path 326" d="M14.59,17.063A7.888,7.888,0,1,1,17.062,6.188,7.885,7.885,0,0,1,14.59,17.063Z" transform="translate(-1.101 -1.101)" fill="none" stroke="#000" stroke-linecap="round" stroke-linejoin="round" stroke-width="3"/>
        </g>
      </g>
      <g id="Group_612" data-name="Group 612" transform="translate(4568.003 8643.777)">
        <g id="Group_601-2" data-name="Group 601" transform="translate(0 0)" clip-path="url(#clip-path-18)">
          <path id="Path_326-2" data-name="Path 326" d="M14.59,17.063A7.888,7.888,0,1,1,17.062,6.188,7.885,7.885,0,0,1,14.59,17.063Z" transform="translate(-1.101 -1.101)" fill="none" stroke="#000" stroke-linecap="round" stroke-linejoin="round" stroke-width="3"/>
        </g>
      </g>
      <g id="Group_616" data-name="Group 616" transform="translate(4733.511 8744.006)">
        <g id="Group_601-3" data-name="Group 601" transform="translate(0 0)" clip-path="url(#clip-path-18)">
          <path id="Path_326-3" data-name="Path 326" d="M14.59,17.063A7.888,7.888,0,1,1,17.062,6.188,7.885,7.885,0,0,1,14.59,17.063Z" transform="translate(-1.101 -1.101)" fill="none" stroke="#000" stroke-linecap="round" stroke-linejoin="round" stroke-width="3"/>
        </g>
      </g>
      <g id="Group_605" data-name="Group 605" transform="translate(3548.615 8761.889)">
        <g id="Group_601-4" data-name="Group 601" transform="translate(0 0)" clip-path="url(#clip-path-18)">
          <path id="Path_326-4" data-name="Path 326" d="M14.59,17.063A7.888,7.888,0,1,1,17.062,6.188,7.885,7.885,0,0,1,14.59,17.063Z" transform="translate(-1.101 -1.101)" fill="none" stroke="#000" stroke-linecap="round" stroke-linejoin="round" stroke-width="3"/>
        </g>
      </g>
      <g id="Group_603" data-name="Group 603" transform="translate(4055.759 8742.383) rotate(90)">
        <g id="Group_589-2" data-name="Group 589" clip-path="url(#clip-path-7)">
          <path id="Path_310-2" data-name="Path 310" d="M20.145,0C9.019,0,0,8.683,0,19.391S9.019,38.78,20.145,38.78" transform="translate(3.91 16.624)" fill="none" stroke="#000" stroke-linecap="round" stroke-linejoin="round" stroke-width="3"/>
          <path id="Path_311-2" data-name="Path 311" d="M20.145,0C9.019,0,0,8.683,0,19.391S9.019,38.78,20.145,38.78" transform="translate(24.01 0.272)" fill="none" stroke="#000" stroke-miterlimit="10" stroke-width="1"/>
        </g>
      </g>
      <g id="Group_611" data-name="Group 611" transform="translate(4759.718 8779.185) rotate(41)">
        <g id="Group_589-3" data-name="Group 589" clip-path="url(#clip-path-7)">
          <path id="Path_310-3" data-name="Path 310" d="M20.145,0C9.019,0,0,8.683,0,19.391S9.019,38.78,20.145,38.78" transform="translate(3.91 16.624)" fill="none" stroke="#000" stroke-linecap="round" stroke-linejoin="round" stroke-width="3"/>
          <path id="Path_311-3" data-name="Path 311" d="M20.145,0C9.019,0,0,8.683,0,19.391S9.019,38.78,20.145,38.78" transform="translate(24.01 0.272)" fill="none" stroke="#000" stroke-miterlimit="10" stroke-width="1"/>
        </g>
      </g>
      <path id="Path_329" data-name="Path 329" d="M94.148,52.713a20.16,20.16,0,1,1-20.16-20.16A20.159,20.159,0,0,1,94.148,52.713Z" transform="translate(4120.991 8775.61)" fill="none" stroke="#000" stroke-miterlimit="10" stroke-width="1"/>
    </g>
    <g id="Group_618" data-name="Group 618" transform="translate(4636.578 8594.052) rotate(90)">
      <g id="Group_599-2" data-name="Group 599" transform="translate(0 0)" clip-path="url(#clip-path-17)">
        <line id="Line_155-2" data-name="Line 155" x2="37.675" transform="translate(2.214 3.261)" fill="none" stroke="#000" stroke-linecap="round" stroke-linejoin="round" stroke-width="3"/>
        <line id="Line_156-2" data-name="Line 156" x2="37.675" transform="translate(25.132 15.199)" fill="none" stroke="#000" stroke-miterlimit="10" stroke-width="1"/>
      </g>
    </g>
  </g>
</svg>
